<svg viewBox="0 0 502 89" fill="none" xmlns="http://www.w3.org/2000/svg">
<path fill-rule="evenodd" clip-rule="evenodd" d="M363 53H368V48V38V28L363 23V33V43V53ZM403 73L408 78V68V58V48V38V28L403 23V33V43V53V63V73ZM393 83L398 88V78L393 73V83Z" fill="#225599" stroke="black" stroke-linecap="round" stroke-linejoin="round"/>
<path fill-rule="evenodd" clip-rule="evenodd" d="M353 53V58H348L343 53H353ZM383 63V68H378H368H358L353 63H363H373H383ZM403 73L408 78H398L393 73H403ZM393 83L398 88H388H378H368H358H348L343 83H353H363H373H383H393Z" fill="black" stroke="black" stroke-linecap="round" stroke-linejoin="round"/>
<path fill-rule="evenodd" clip-rule="evenodd" d="M403 73H393V83H383H373H363H353H343V73H353H363H373H383V63H373H363H353V53H343V43V33V23H353H363V33V43V53H373H383V43V33V23H393H403V33V43V53V63V73Z" fill="#33AAFF" stroke="black" stroke-linecap="round" stroke-linejoin="round"/>
<path fill-rule="evenodd" clip-rule="evenodd" d="M313 61H318V56V46V36V26V16V6L313 1V11V21V31V41V51V61ZM333 71L338 76V66L333 61V71Z" fill="#225599" stroke="black" stroke-linecap="round" stroke-linejoin="round"/>
<path fill-rule="evenodd" clip-rule="evenodd" d="M293 21V26H288L283 21H293ZM333 71L338 76H328H318H308H298H288H278L273 71H283H293H303H313H323H333Z" fill="black" stroke="black" stroke-linecap="round" stroke-linejoin="round"/>
<path fill-rule="evenodd" clip-rule="evenodd" d="M333 71H323H313H303H293H283H273V61H283H293V51V41V31V21H283V11H293V1H303H313V11V21V31V41V51V61H323H333V71Z" fill="#33AAFF" stroke="black" stroke-linecap="round" stroke-linejoin="round"/>
<path fill-rule="evenodd" clip-rule="evenodd" d="M101 32H106V27L101 22V32ZM71 42H76V37L71 32V42ZM111 52L116 57V47V37L111 32V42V52ZM71 62H76V57L71 52V62ZM101 72L106 77V67L101 62V72Z" fill="#883399" stroke="black" stroke-linecap="round" stroke-linejoin="round"/>
<path fill-rule="evenodd" clip-rule="evenodd" d="M91 32V37H86H76L71 32H81H91ZM111 52L116 57H106H96H86H76L71 52H81H91H101H111ZM61 62V67H56L51 62H61ZM101 72L106 77H96H86H76H66L61 72H71H81H91H101Z" fill="black" stroke="black" stroke-linecap="round" stroke-linejoin="round"/>
<path fill-rule="evenodd" clip-rule="evenodd" d="M111 52H101H91H81H71V62H81H91H101V72H91H81H71H61V62H51V52V42V32H61V22H71H81H91H101V32H111V42V52ZM91 42H81H71V32H81H91V42Z" fill="#FFAAEE" stroke="black" stroke-linecap="round" stroke-linejoin="round"/>
<path fill-rule="evenodd" clip-rule="evenodd" d="M31 62H36V57V47V37V27V17V7L31 2V12V22V32V42V52V62ZM41 72L46 77V67L41 62V72Z" fill="#883399" stroke="black" stroke-linecap="round" stroke-linejoin="round"/>
<path fill-rule="evenodd" clip-rule="evenodd" d="M11 12V17H6L1 12H11ZM41 72L46 77H36H26H16H6L1 72H11H21H31H41Z" fill="black" stroke="black" stroke-linecap="round" stroke-linejoin="round"/>
<path fill-rule="evenodd" clip-rule="evenodd" d="M41 72H31H21H11H1V62H11V52V42V32V22V12H1V2H11H21H31V12V22V32V42V52V62H41V72Z" fill="#FFAAEE" stroke="black" stroke-linecap="round" stroke-linejoin="round"/>
<path fill-rule="evenodd" clip-rule="evenodd" d="M172 31H177V26L172 21V31ZM182 61H187V56V46V36L182 31V41V51V61ZM142 61H147V56L142 51V61ZM162 71L167 76V66L162 61V71ZM192 71L197 76V66L192 61V71Z" fill="#7F7F7F" stroke="black" stroke-linecap="round" stroke-linejoin="round"/>
<path fill-rule="evenodd" clip-rule="evenodd" d="M162 31V36H157H147H137L132 31H142H152H162ZM162 51V56H157H147L142 51H152H162ZM132 61V66H127L122 61H132ZM172 61V66H167L162 61H172ZM162 71L167 76H157H147H137L132 71H142H152H162ZM192 71L197 76H187H177L172 71H182H192Z" fill="black" stroke="black" stroke-linecap="round" stroke-linejoin="round"/>
<path fill-rule="evenodd" clip-rule="evenodd" d="M192 71H182H172V61H162H152H142V51H152H162V61V71H152H142H132V61H122V51H132V41H142H152H162V31H152H142H132V21H142H152H162H172V31H182V41V51V61H192V71Z" fill="white"/>
<path d="M162 61H172V71H182H192V61H182V51V41V31H172V21H162H152H142H132V31H142H152H162V41H152H142H132V51H122V61H132V71H142H152H162V61ZM162 61H152H142V51H152H162V61Z" stroke="black" stroke-linecap="round" stroke-linejoin="round"/>
<path fill-rule="evenodd" clip-rule="evenodd" d="M242 61H247V56V46V36V26V16V6L242 1V11V21V31V41V51V61ZM262 71L267 76V66L262 61V71Z" fill="#7F7F7F" stroke="black" stroke-linecap="round" stroke-linejoin="round"/>
<path fill-rule="evenodd" clip-rule="evenodd" d="M222 21V26H217L212 21H222ZM262 71L267 76H257H247H237H227H217H207L202 71H212H222H232H242H252H262Z" fill="black" stroke="black" stroke-linecap="round" stroke-linejoin="round"/>
<path fill-rule="evenodd" clip-rule="evenodd" d="M262 71H252H242H232H222H212H202V61H212H222V51V41V31V21H212V11H222V1H232H242V11V21V31V41V51V61H252H262V71Z" fill="white" stroke="black" stroke-linecap="round" stroke-linejoin="round"/>
<path fill-rule="evenodd" clip-rule="evenodd" d="M456 12H461V7L456 2V12ZM486 12H491V7L486 2V12ZM496 42L501 47V37V27V17L496 12V22V32V42ZM486 52L491 57V47L486 42V52ZM476 62L481 67V57L476 52V62ZM466 72L471 77V67L466 62V72Z" fill="#991F21" stroke="black" stroke-linecap="round" stroke-linejoin="round"/>
<path fill-rule="evenodd" clip-rule="evenodd" d="M436 42V47H431L426 42H436ZM496 42L501 47H491L486 42H496ZM446 52V57H441L436 52H446ZM486 52L491 57H481L476 52H486ZM456 62V67H451L446 62H456ZM476 62L481 67H471L466 62H476ZM466 72L471 77H461L456 72H466Z" fill="black" stroke="black" stroke-linecap="round" stroke-linejoin="round"/>
<path fill-rule="evenodd" clip-rule="evenodd" d="M496 42H486V52H476V62H466V72H456V62H446V52H436V42H426V32V22V12H436V2H446H456V12H466V2H476H486V12H496V22V32V42Z" fill="#FF3336" stroke="black" stroke-linecap="round" stroke-linejoin="round"/>
</svg>
